<?xml version="1.0" encoding="UTF-8" standalone="no"?>
<!DOCTYPE svg PUBLIC "-//W3C//DTD SVG 1.1//EN"
 "http://www.w3.org/Graphics/SVG/1.1/DTD/svg11.dtd">
<!-- Generated by graphviz version 12.1.1 (20240910.0053)
 -->
<!-- Title: INFRA Pages: 1 -->
<svg width="364pt" height="188pt"
 viewBox="0.00 0.00 364.25 188.00" xmlns="http://www.w3.org/2000/svg" xmlns:xlink="http://www.w3.org/1999/xlink">
<g id="graph0" class="graph" transform="scale(1 1) rotate(0) translate(4 184)">
<title>INFRA</title>
<polygon fill="white" stroke="none" points="-4,4 -4,-184 360.25,-184 360.25,4 -4,4"/>
<!-- sm&#45;training&#45;byoc -->
<g id="node1" class="node">
<title>sm&#45;training&#45;byoc</title>
<path fill="#fff5cd" stroke="black" stroke-width="2" d="M169.25,-65.45C169.25,-69.07 131.32,-72 84.62,-72 37.93,-72 0,-69.07 0,-65.45 0,-65.45 0,-6.55 0,-6.55 0,-2.93 37.93,0 84.62,0 131.32,0 169.25,-2.93 169.25,-6.55 169.25,-6.55 169.25,-65.45 169.25,-65.45"/>
<path fill="none" stroke="black" stroke-width="2" d="M169.25,-65.45C169.25,-61.84 131.32,-58.91 84.62,-58.91 37.93,-58.91 0,-61.84 0,-65.45"/>
<text text-anchor="middle" x="84.62" y="-40.2" font-family="Arial" font-size="14.00">sm&#45;training&#45;byoc</text>
<text text-anchor="middle" x="84.62" y="-23.4" font-family="Arial" font-size="14.00">(AWS::ECR::Repository)</text>
</g>
<!-- sm&#45;preprocessing -->
<g id="node2" class="node">
<title>sm&#45;preprocessing</title>
<path fill="#fff5cd" stroke="black" stroke-width="2" d="M356.25,-65.45C356.25,-69.07 318.32,-72 271.62,-72 224.93,-72 187,-69.07 187,-65.45 187,-65.45 187,-6.55 187,-6.55 187,-2.93 224.93,0 271.62,0 318.32,0 356.25,-2.93 356.25,-6.55 356.25,-6.55 356.25,-65.45 356.25,-65.45"/>
<path fill="none" stroke="black" stroke-width="2" d="M356.25,-65.45C356.25,-61.84 318.32,-58.91 271.62,-58.91 224.93,-58.91 187,-61.84 187,-65.45"/>
<text text-anchor="middle" x="271.62" y="-40.2" font-family="Arial" font-size="14.00">sm&#45;preprocessing</text>
<text text-anchor="middle" x="271.62" y="-23.4" font-family="Arial" font-size="14.00">(AWS::ECR::Repository)</text>
</g>
<!-- training&#45;image -->
<g id="node3" class="node">
<title>training&#45;image</title>
<path fill="#b7e0ff" stroke="black" stroke-width="2" d="M130.8,-180C130.8,-180 38.44,-180 38.44,-180 32.44,-180 26.44,-174 26.44,-168 26.44,-168 26.44,-120 26.44,-120 26.44,-114 32.44,-108 38.44,-108 38.44,-108 130.8,-108 130.8,-108 136.8,-108 142.8,-114 142.8,-120 142.8,-120 142.8,-168 142.8,-168 142.8,-174 136.8,-180 130.8,-180"/>
<text text-anchor="middle" x="84.62" y="-148.2" font-family="Arial" font-size="14.00">training&#45;image</text>
<text text-anchor="middle" x="84.62" y="-131.4" font-family="Arial" font-size="14.00">(Docker::Image)</text>
</g>
<!-- training&#45;image&#45;&gt;sm&#45;training&#45;byoc -->
<g id="edge1" class="edge">
<title>training&#45;image&#45;&gt;sm&#45;training&#45;byoc</title>
<path fill="none" stroke="black" d="M84.62,-107.7C84.62,-99.93 84.62,-91.57 84.62,-83.43"/>
<polygon fill="black" stroke="black" points="88.12,-83.66 84.62,-73.66 81.12,-83.66 88.12,-83.66"/>
</g>
<!-- preprocessing&#45;image -->
<g id="node4" class="node">
<title>preprocessing&#45;image</title>
<path fill="#b7e0ff" stroke="black" stroke-width="2" d="M332.99,-180C332.99,-180 210.26,-180 210.26,-180 204.26,-180 198.26,-174 198.26,-168 198.26,-168 198.26,-120 198.26,-120 198.26,-114 204.26,-108 210.26,-108 210.26,-108 332.99,-108 332.99,-108 338.99,-108 344.99,-114 344.99,-120 344.99,-120 344.99,-168 344.99,-168 344.99,-174 338.99,-180 332.99,-180"/>
<text text-anchor="middle" x="271.62" y="-148.2" font-family="Arial" font-size="14.00">preprocessing&#45;image</text>
<text text-anchor="middle" x="271.62" y="-131.4" font-family="Arial" font-size="14.00">(Docker::Image)</text>
</g>
<!-- preprocessing&#45;image&#45;&gt;sm&#45;preprocessing -->
<g id="edge2" class="edge">
<title>preprocessing&#45;image&#45;&gt;sm&#45;preprocessing</title>
<path fill="none" stroke="black" d="M271.62,-107.7C271.62,-99.93 271.62,-91.57 271.62,-83.43"/>
<polygon fill="black" stroke="black" points="275.12,-83.66 271.62,-73.66 268.12,-83.66 275.12,-83.66"/>
</g>
</g>
</svg>
